<?xml version="1.0" encoding="utf-8"?>
<svg xml:space="preserve" viewBox="0 0 146.98 97.838" height="150px" width="150px" y="0px" x="0px" xmlns:xlink="http://www.w3.org/1999/xlink" xmlns="http://www.w3.org/2000/svg" id="Layer_2_1_" version="1.1" style="height: 100%; width: 100%; background: none; shape-rendering: auto;"><g class="ldl-scale" style="transform-origin: 50% 50%; transform: rotate(0deg) scale(1, 1);"><g class="ldl-ani" style="transform-origin: 73.49px 48.919px; transform: scale(0.91); animation: 0.806452s linear 0s infinite normal forwards running breath-3975e11b-9be8-4cb4-9213-88171ef844bc;">
<g class="ldl-layer"><g class="ldl-ani"><g>
	<defs>
		<g class="ldl-layer"><g class="ldl-ani"><rect height="54.691" width="114.021" y="23.601" x="15.572" id="SVGID_1_" style="fill: rgb(86, 153, 210);"></rect></g></g>
	</defs>
	<clipPath id="SVGID_2_">
		<use overflow="visible" xlink:href="#SVGID_1_"></use>
	</clipPath>
	<g class="ldl-layer"><g class="ldl-ani"><path d="M19.712,24.501c0,0-3.24,0-3.24,3.24v46.41
		c0,0,0,3.24,3.24,3.24h105.741c0,0,3.24,0,3.24-3.24v-46.41c0,0,0-3.24-3.24-3.24H19.712z" stroke-width="1.8" stroke="#20221D" fill="none" clip-path="url(#SVGID_2_)" style="stroke: rgb(29, 63, 114);"></path></g></g>
	<g class="ldl-layer"><g class="ldl-ani"><path d="M43.614,63.057c0,0-0.648,0-0.648,0.647v5.624c0,0,0,0.648,0.648,0.648h57.662
		c0,0,0.648,0,0.648-0.648v-5.624c0,0,0-0.647-0.648-0.647H43.614z" fill="#20221D" clip-path="url(#SVGID_2_)" style="fill: rgb(29, 63, 114);"></path></g></g>
	<g class="ldl-layer"><g class="ldl-ani"><path d="M106.031,63.057c0,0-0.648,0-0.648,0.647v5.624c0,0,0,0.648,0.648,0.648h14.85
		c0,0,0.648,0,0.648-0.648v-5.624c0,0,0-0.647-0.648-0.647H106.031z" fill="#20221D" clip-path="url(#SVGID_2_)" style="fill: rgb(29, 63, 114);"></path></g></g>
	<g class="ldl-layer"><g class="ldl-ani"><path d="M24.146,63.057c0,0-0.648,0-0.648,0.647v5.624c0,0,0,0.648,0.648,0.648h14.85
		c0,0,0.648,0,0.648-0.648v-5.624c0,0,0-0.647-0.648-0.647H24.146z" fill="#20221D" clip-path="url(#SVGID_2_)" style="fill: rgb(29, 63, 114);"></path></g></g>
	<g class="ldl-layer"><g class="ldl-ani"><path d="M54.132,52.677c0,0-0.647,0-0.647,0.647v5.624c0,0,0,0.648,0.647,0.648h5.624
		c0,0,0.648,0,0.648-0.648v-5.624c0,0,0-0.647-0.648-0.647H54.132z" fill="#20221D" clip-path="url(#SVGID_2_)" style="fill: rgb(29, 63, 114);"></path></g></g>
	<g class="ldl-layer"><g class="ldl-ani"><path d="M43.752,52.677c0,0-0.648,0-0.648,0.647v5.624c0,0,0,0.648,0.648,0.648h5.624
		c0,0,0.647,0,0.647-0.648v-5.624c0,0,0-0.647-0.647-0.647H43.752z" fill="#20221D" clip-path="url(#SVGID_2_)" style="fill: rgb(29, 63, 114);"></path></g></g>
	<g class="ldl-layer"><g class="ldl-ani"><path d="M24.146,52.677c0,0-0.648,0-0.648,0.647v5.624c0,0,0,0.648,0.648,0.648h14.85
		c0,0,0.648,0,0.648-0.648v-5.624c0,0,0-0.647-0.648-0.647H24.146z" fill="#20221D" clip-path="url(#SVGID_2_)" style="fill: rgb(29, 63, 114);"></path></g></g>
	<g class="ldl-layer"><g class="ldl-ani"><path d="M64.512,52.677c0,0-0.648,0-0.648,0.647v5.624c0,0,0,0.648,0.648,0.648h5.624
		c0,0,0.647,0,0.647-0.648v-5.624c0,0,0-0.647-0.647-0.647H64.512z" fill="#20221D" clip-path="url(#SVGID_2_)" style="fill: rgb(29, 63, 114);"></path></g></g>
	<g class="ldl-layer"><g class="ldl-ani"><path d="M74.892,52.677c0,0-0.647,0-0.647,0.647v5.624c0,0,0,0.648,0.647,0.648h5.624
		c0,0,0.648,0,0.648-0.648v-5.624c0,0,0-0.647-0.648-0.647H74.892z" fill="#20221D" clip-path="url(#SVGID_2_)" style="fill: rgb(29, 63, 114);"></path></g></g>
	<g class="ldl-layer"><g class="ldl-ani"><path d="M85.271,52.677c0,0-0.648,0-0.648,0.647v5.624c0,0,0,0.648,0.648,0.648h5.624
		c0,0,0.647,0,0.647-0.648v-5.624c0,0,0-0.647-0.647-0.647H85.271z" fill="#20221D" clip-path="url(#SVGID_2_)" style="fill: rgb(29, 63, 114);"></path></g></g>
	<g class="ldl-layer"><g class="ldl-ani"><path d="M95.651,52.677c0,0-0.647,0-0.647,0.647v5.624c0,0,0,0.648,0.647,0.648h5.624
		c0,0,0.648,0,0.648-0.648v-5.624c0,0,0-0.647-0.648-0.647H95.651z" fill="#20221D" clip-path="url(#SVGID_2_)" style="fill: rgb(29, 63, 114);"></path></g></g>
	<g class="ldl-layer"><g class="ldl-ani"><path d="M106.031,52.677c0,0-0.648,0-0.648,0.647v5.624c0,0,0,0.648,0.648,0.648h14.989
		c0,0,0.647,0,0.647-0.648v-5.624c0,0,0-0.647-0.647-0.647H106.031z" fill="#20221D" clip-path="url(#SVGID_2_)" style="fill: rgb(29, 63, 114);"></path></g></g>
	<g class="ldl-layer"><g class="ldl-ani"><path d="M49.519,42.297c0,0-0.648,0-0.648,0.647v5.624c0,0,0,0.648,0.648,0.648h5.624
		c0,0,0.648,0,0.648-0.648v-5.624c0,0,0-0.647-0.648-0.647H49.519z" fill="#20221D" clip-path="url(#SVGID_2_)" style="fill: rgb(29, 63, 114);"></path></g></g>
	<g class="ldl-layer"><g class="ldl-ani"><path d="M39.139,42.297c0,0-0.648,0-0.648,0.647v5.624c0,0,0,0.648,0.648,0.648h5.624
		c0,0,0.648,0,0.648-0.648v-5.624c0,0,0-0.647-0.648-0.647H39.139z" fill="#20221D" clip-path="url(#SVGID_2_)" style="fill: rgb(29, 63, 114);"></path></g></g>
	<g class="ldl-layer"><g class="ldl-ani"><path d="M24.146,42.297c0,0-0.648,0-0.648,0.647v5.624c0,0,0,0.648,0.648,0.648h10.237
		c0,0,0.648,0,0.648-0.648v-5.624c0,0,0-0.647-0.648-0.647H24.146z" fill="#20221D" clip-path="url(#SVGID_2_)" style="fill: rgb(29, 63, 114);"></path></g></g>
	<g class="ldl-layer"><g class="ldl-ani"><path d="M59.898,42.297c0,0-0.648,0-0.648,0.647v5.624c0,0,0,0.648,0.648,0.648h5.624
		c0,0,0.648,0,0.648-0.648v-5.624c0,0,0-0.647-0.648-0.647H59.898z" fill="#20221D" clip-path="url(#SVGID_2_)" style="fill: rgb(29, 63, 114);"></path></g></g>
	<g class="ldl-layer"><g class="ldl-ani"><path d="M70.278,42.297c0,0-0.647,0-0.647,0.647v5.624c0,0,0,0.648,0.647,0.648h5.624
		c0,0,0.648,0,0.648-0.648v-5.624c0,0,0-0.647-0.648-0.647H70.278z" fill="#20221D" clip-path="url(#SVGID_2_)" style="fill: rgb(29, 63, 114);"></path></g></g>
	<g class="ldl-layer"><g class="ldl-ani"><path d="M80.658,42.297c0,0-0.648,0-0.648,0.647v5.624c0,0,0,0.648,0.648,0.648h5.624
		c0,0,0.647,0,0.647-0.648v-5.624c0,0,0-0.647-0.647-0.647H80.658z" fill="#20221D" clip-path="url(#SVGID_2_)" style="fill: rgb(29, 63, 114);"></path></g></g>
	<g class="ldl-layer"><g class="ldl-ani"><path d="M91.038,42.297c0,0-0.647,0-0.647,0.647v5.624c0,0,0,0.648,0.647,0.648h5.624
		c0,0,0.648,0,0.648-0.648v-5.624c0,0,0-0.647-0.648-0.647H91.038z" fill="#20221D" clip-path="url(#SVGID_2_)" style="fill: rgb(29, 63, 114);"></path></g></g>
	<g class="ldl-layer"><g class="ldl-ani"><path d="M101.418,42.297c0,0-0.648,0-0.648,0.647v5.624c0,0,0,0.648,0.648,0.648h5.624
		c0,0,0.647,0,0.647-0.648v-5.624c0,0,0-0.647-0.647-0.647H101.418z" fill="#20221D" clip-path="url(#SVGID_2_)" style="fill: rgb(29, 63, 114);"></path></g></g>
	<g class="ldl-layer"><g class="ldl-ani"><path d="M111.798,42.297c0,0-0.647,0-0.647,0.647v5.624c0,0,0,0.648,0.647,0.648h9.222
		c0,0,0.648,0,0.648-0.648v-5.624c0,0,0-0.647-0.648-0.647H111.798z" fill="#20221D" clip-path="url(#SVGID_2_)" style="fill: rgb(29, 63, 114);"></path></g></g>
	<g class="ldl-layer"><g class="ldl-ani"><path d="M74.635,31.916c0,0-0.647,0-0.647,0.648v5.624c0,0,0,0.648,0.647,0.648h5.625
		c0,0,0.647,0,0.647-0.648v-5.624c0,0,0-0.648-0.647-0.648H74.635z" fill="#20221D" clip-path="url(#SVGID_2_)" style="fill: rgb(29, 63, 114);"></path></g></g>
	<g class="ldl-layer"><g class="ldl-ani"><path d="M64.537,31.916c0,0-0.647,0-0.647,0.648v5.624c0,0,0,0.648,0.647,0.648h5.625
		c0,0,0.647,0,0.647-0.648v-5.624c0,0,0-0.648-0.647-0.648H64.537z" fill="#20221D" clip-path="url(#SVGID_2_)" style="fill: rgb(29, 63, 114);"></path></g></g>
	<g class="ldl-layer"><g class="ldl-ani"><path d="M54.439,31.916c0,0-0.648,0-0.648,0.648v5.624c0,0,0,0.648,0.648,0.648h5.624
		c0,0,0.647,0,0.647-0.648v-5.624c0,0,0-0.648-0.647-0.648H54.439z" fill="#20221D" clip-path="url(#SVGID_2_)" style="fill: rgb(29, 63, 114);"></path></g></g>
	<g class="ldl-layer"><g class="ldl-ani"><path d="M44.342,31.916c0,0-0.648,0-0.648,0.648v5.624c0,0,0,0.648,0.648,0.648h5.624
		c0,0,0.647,0,0.647-0.648v-5.624c0,0,0-0.648-0.647-0.648H44.342z" fill="#20221D" clip-path="url(#SVGID_2_)" style="fill: rgb(29, 63, 114);"></path></g></g>
	<g class="ldl-layer"><g class="ldl-ani"><path d="M34.244,31.916c0,0-0.648,0-0.648,0.648v5.624c0,0,0,0.648,0.648,0.648h5.624
		c0,0,0.648,0,0.648-0.648v-5.624c0,0,0-0.648-0.648-0.648H34.244z" fill="#20221D" clip-path="url(#SVGID_2_)" style="fill: rgb(29, 63, 114);"></path></g></g>
	<g class="ldl-layer"><g class="ldl-ani"><path d="M24.146,31.916c0,0-0.648,0-0.648,0.648v5.624c0,0,0,0.648,0.648,0.648h5.624
		c0,0,0.648,0,0.648-0.648v-5.624c0,0,0-0.648-0.648-0.648H24.146z" fill="#20221D" clip-path="url(#SVGID_2_)" style="fill: rgb(29, 63, 114);"></path></g></g>
	<g class="ldl-layer"><g class="ldl-ani"><path d="M84.733,31.916c0,0-0.647,0-0.647,0.648v5.624c0,0,0,0.648,0.647,0.648h5.624
		c0,0,0.648,0,0.648-0.648v-5.624c0,0,0-0.648-0.648-0.648H84.733z" fill="#20221D" clip-path="url(#SVGID_2_)" style="fill: rgb(29, 63, 114);"></path></g></g>
	<g class="ldl-layer"><g class="ldl-ani"><path d="M94.832,31.916c0,0-0.648,0-0.648,0.648v5.624c0,0,0,0.648,0.648,0.648h5.623
		c0,0,0.648,0,0.648-0.648v-5.624c0,0,0-0.648-0.648-0.648H94.832z" fill="#20221D" clip-path="url(#SVGID_2_)" style="fill: rgb(29, 63, 114);"></path></g></g>
	<g class="ldl-layer"><g class="ldl-ani"><path d="M104.93,31.916c0,0-0.648,0-0.648,0.648v5.624c0,0,0,0.648,0.648,0.648h5.623
		c0,0,0.648,0,0.648-0.648v-5.624c0,0,0-0.648-0.648-0.648H104.93z" fill="#20221D" clip-path="url(#SVGID_2_)" style="fill: rgb(29, 63, 114);"></path></g></g>
	<g class="ldl-layer"><g class="ldl-ani"><path d="M115.027,31.916c0,0-0.648,0-0.648,0.648v5.624c0,0,0,0.648,0.648,0.648h5.624
		c0,0,0.647,0,0.647-0.648v-5.624c0,0,0-0.648-0.647-0.648H115.027z" fill="#20221D" clip-path="url(#SVGID_2_)" style="fill: rgb(29, 63, 114);"></path></g></g>
</g></g></g>
</g></g><style id="breath-3975e11b-9be8-4cb4-9213-88171ef844bc" data-anikit="">@keyframes breath-3975e11b-9be8-4cb4-9213-88171ef844bc
{
  0% {
    animation-timing-function: cubic-bezier(0.9647,0.2413,-0.0705,0.7911);
    transform: scale(0.9099999999999999);
  }
  51% {
    animation-timing-function: cubic-bezier(0.9226,0.2631,-0.0308,0.7628);
    transform: scale(1.02994);
  }
  100% {
    transform: scale(0.9099999999999999);
  }
}</style><!-- [ldio] generated by https://loading.io/ --></svg>