<?xml version="1.0" encoding="utf-8"?>
<svg xml:space="preserve" viewBox="0 0 100 100" y="0" x="0" xmlns="http://www.w3.org/2000/svg" id="圖層_1" version="1.1" style="height: 100%; width: 100%; background: none; shape-rendering: auto;" width="100px" height="100px"><g class="ldl-scale" style="transform-origin: 50% 50%; transform: rotate(0deg) scale(0.8, 0.8);"><g class="ldl-ani"><g class="ldl-layer"><g class="ldl-ani" style="transform-origin: 50px 50px; transform: scale(0.91); animation: 0.671141s linear -0.503356s infinite normal forwards running breath-3a06049d-a4bc-4efe-b7e3-59df4a760cf0;"><path stroke-miterlimit="10" stroke-width="8" stroke="#333" fill="none" d="M45.7 10.2L17.6 26.4c-2.7 1.5-4.3 4.4-4.3 7.4v32.4c0 3.1 1.6 5.9 4.3 7.4l28.1 16.2c2.7 1.5 5.9 1.5 8.6 0l28.1-16.2c2.7-1.5 4.3-4.4 4.3-7.4V33.8c0-3.1-1.6-5.9-4.3-7.4L54.3 10.2c-2.7-1.6-5.9-1.6-8.6 0z" style="stroke: rgb(0, 200, 187);"></path></g></g><g class="ldl-layer"><g class="ldl-ani" style="transform-origin: 50px 50px; transform: scale(0.91); animation: 0.671141s linear -0.671141s infinite normal forwards running breath-3a06049d-a4bc-4efe-b7e3-59df4a760cf0;"><path fill="#abbd81" d="M68.7 46.2H53.8V31.3c0-2.1-1.7-3.8-3.8-3.8s-3.8 1.7-3.8 3.8v14.9H31.3c-2.1 0-3.8 1.7-3.8 3.8s1.7 3.8 3.8 3.8h14.9v14.9c0 2.1 1.7 3.8 3.8 3.8s3.8-1.7 3.8-3.8V53.8h14.9c2.1 0 3.8-1.7 3.8-3.8s-1.7-3.8-3.8-3.8z" style="fill: rgb(0, 200, 187);"></path></g></g><metadata xmlns:d="https://loading.io/stock/"><d:name>add</d:name><d:tags>add,plus,cross,new,create,upload,insert,append,hexagon,form</d:tags><d:license>by</d:license><d:slug>k9aufb</d:slug></metadata></g></g><style id="breath-3a06049d-a4bc-4efe-b7e3-59df4a760cf0" data-anikit="">@keyframes breath-3a06049d-a4bc-4efe-b7e3-59df4a760cf0
{
  0% {
    animation-timing-function: cubic-bezier(0.9647,0.2413,-0.0705,0.7911);
    transform: scale(0.9099999999999999);
  }
  51% {
    animation-timing-function: cubic-bezier(0.9226,0.2631,-0.0308,0.7628);
    transform: scale(1.02994);
  }
  100% {
    transform: scale(0.9099999999999999);
  }
}</style><!-- [ldio] generated by https://loading.io/ --></svg>