<?xml version="1.0" encoding="utf-8"?>
<svg xml:space="preserve" viewBox="0 0 100 100" y="0" x="0" xmlns="http://www.w3.org/2000/svg" id="圖層_1" version="1.1" style="height: 100%; width: 100%; background: none; shape-rendering: auto;" width="100px" height="100px"><g class="ldl-scale" style="transform-origin: 50% 50%; transform: rotate(0deg) scale(0.8, 0.8);"><g class="ldl-ani"><g class="ldl-layer"><g class="ldl-ani" style="transform: scale(0.91); transform-origin: 50px 50px; animation: 1.11111s linear -0.694444s infinite normal forwards running breath-05daeda5-2c5d-4000-8471-1f9fbd13c3fa;"><path stroke="#333" fill="#e0e0e0" stroke-miterlimit="10" stroke-linejoin="round" stroke-linecap="round" stroke-width="3.5" d="M50.152 75.622L27.508 81.69c-5.391 1.445-10.932-1.755-12.377-7.146L5.006 36.755c-1.445-5.391 1.755-10.932 7.146-12.377l22.644-6.068c5.391-1.445 10.932 1.755 12.377 7.146l10.125 37.788c1.444 5.392-1.755 10.933-7.146 12.378z" style="fill: rgb(224, 224, 224); stroke: rgb(51, 51, 51);"></path></g></g><g class="ldl-layer"><g class="ldl-ani" style="transform: scale(0.91); transform-origin: 50px 50px; animation: 1.11111s linear -0.833333s infinite normal forwards running breath-05daeda5-2c5d-4000-8471-1f9fbd13c3fa;"><path stroke-miterlimit="10" stroke-linejoin="round" stroke-linecap="round" stroke-width="3.5" stroke="#333" fill="#e15b64" d="M34.726 36.816h0a6.865 6.865 0 0 0-4.854 8.408 6.865 6.865 0 0 0-8.408-4.854h0a6.865 6.865 0 0 0-4.854 8.408l.024.088c1.963 7.325 14.37 13.4 17.575 12.542s10.912-12.324 8.949-19.649l-.024-.088a6.865 6.865 0 0 0-8.408-4.855z" style="fill: rgb(225, 91, 100); stroke: rgb(51, 51, 51);"></path></g></g><g class="ldl-layer"><g class="ldl-ani" style="transform: scale(0.91); transform-origin: 50px 50px; animation: 1.11111s linear -0.972222s infinite normal forwards running breath-05daeda5-2c5d-4000-8471-1f9fbd13c3fa;"><path stroke="#333" fill="#e0e0e0" stroke-miterlimit="10" stroke-linejoin="round" stroke-linecap="round" stroke-width="3.5" d="M72.492 81.689l-22.644-6.068c-5.391-1.445-8.59-6.986-7.146-12.377l10.125-37.788c1.445-5.391 6.986-8.59 12.377-7.146l22.644 6.068c5.391 1.445 8.59 6.986 7.146 12.377L84.869 74.543c-1.445 5.391-6.986 8.591-12.377 7.146z" style="fill: rgb(224, 224, 224); stroke: rgb(51, 51, 51);"></path></g></g><g class="ldl-layer"><g class="ldl-ani" style="transform: scale(0.91); transform-origin: 50px 50px; animation: 1.11111s linear -1.11111s infinite normal forwards running breath-05daeda5-2c5d-4000-8471-1f9fbd13c3fa;"><path stroke-miterlimit="10" stroke-linejoin="round" stroke-linecap="round" stroke-width="3.5" stroke="#333" fill="#666" d="M72.463 36.508S56.851 41.725 54.888 49.05l-.024.088a6.865 6.865 0 0 0 4.854 8.408h0c1.256.337 2.33.223 3.355-.166.762-.289 1.456.531.998 1.206l-2.634 3.89 7.589 2.034-.336-4.685c-.058-.813.952-1.177 1.468-.545.693.849 1.566 1.485 2.822 1.821h0a6.865 6.865 0 0 0 8.408-4.854l.024-.088c1.963-7.326-8.949-19.651-8.949-19.651z" style="fill: rgb(102, 102, 102); stroke: rgb(51, 51, 51);"></path></g></g><metadata xmlns:d="https://loading.io/stock/">
<d:name>card</d:name>
<d:tags>card,poker,gambling,heart,casino,game,suit,french deck</d:tags>
<d:license>by</d:license>
<d:slug>77v4hx</d:slug>
</metadata></g></g><style id="breath-05daeda5-2c5d-4000-8471-1f9fbd13c3fa" data-anikit="">@keyframes breath-05daeda5-2c5d-4000-8471-1f9fbd13c3fa
{
  0% {
    animation-timing-function: cubic-bezier(0.9647,0.2413,-0.0705,0.7911);
    transform: scale(0.9099999999999999);
  }
  51% {
    animation-timing-function: cubic-bezier(0.9226,0.2631,-0.0308,0.7628);
    transform: scale(1.02994);
  }
  100% {
    transform: scale(0.9099999999999999);
  }
}</style><!-- [ldio] generated by https://loading.io/ --></svg>