<svg xml:space="preserve" viewBox="0 0 100 100" y="0" x="0" xmlns="http://www.w3.org/2000/svg" id="圖層_1" version="1.1" style="height: 100%; width: 100%; background: none; shape-rendering: auto;" width="200px" height="200px"><g class="ldl-scale" style="transform-origin: 50% 50%; transform: rotate(0deg) scale(0.8, 0.8);"><g class="ldl-ani"><g class="ldl-layer"><g class="ldl-ani" style="transform-origin: 50px 50px; transform: matrix(0.01, 0, 0, 0.01, 0, 0); animation: 1.11111s linear 0.277778s 1 normal forwards running bounce-in-fae8b6a9-3771-456b-af56-44ff8c6c526b;"><path fill="#333" d="M45.5 8.2l-29.4 17c-2.8 1.6-4.5 4.6-4.5 7.8v34c0 3.2 1.7 6.2 4.5 7.8l29.4 17c2.8 1.6 6.2 1.6 9 0l29.4-17c2.8-1.6 4.5-4.6 4.5-7.8V33c0-3.2-1.7-6.2-4.5-7.8l-29.4-17c-2.8-1.6-6.2-1.6-9 0z" style="fill: rgb(255, 255, 255);"></path></g></g><g class="ldl-layer"><g class="ldl-ani" style="transform-origin: 50px 50px; transform: matrix(0.01, 0, 0, 0.01, 0, 0); animation: 1.11111s linear 0s 1 normal forwards running bounce-in-fae8b6a9-3771-456b-af56-44ff8c6c526b;"><path fill="#abbd81" d="M74.7 29.1c-.5-.6-1.4-.8-2-.3-6.1 4.3-11.9 9.2-17.2 14.6-3.9 4-7.5 8.2-10.8 12.7-.6.8-1.7.8-2.3.1-1.4-1.5-2.9-3-4.5-4.2-3.3-2.6-6.9-4.6-10.7-5.9-.8-.3-1.6.1-1.9.8l-.1.3c-.3.7 0 1.5.6 1.9 3.2 1.9 6.1 4.2 8.4 6.8 2.6 3 4.6 6.4 6 10.1l1.7 4.5c.5 1.2 2.1 1.3 2.7.1l2.3-4.4c3.5-6.8 7.6-13.3 12.4-19.3 4.5-5.7 9.6-10.9 15.1-15.7.7-.6.8-1.4.3-2.1z" style="fill: rgb(171, 189, 129);"></path></g></g><metadata xmlns:d="https://loading.io/stock/"><d:name>ok</d:name><d:tags>ok,confirm,ready,positive,check,right,correct,affirmative,success,hexagon,form</d:tags><d:license>by</d:license><d:slug>m90ikn</d:slug></metadata></g></g><style id="bounce-in-fae8b6a9-3771-456b-af56-44ff8c6c526b" data-anikit="">@keyframes bounce-in-fae8b6a9-3771-456b-af56-44ff8c6c526b
{
  0% {
    animation-timing-function: cubic-bezier(0.0383,0.3388,0.0421,0.6652);
    transform: matrix(0.01,0,0,0.01,0,0);
    opacity: 1;
  }
  4.7% {
    animation-timing-function: cubic-bezier(0.3296,0.3336,0.5772,0.6672);
    transform: matrix(0.556,0,0,0.556,0,0);
    opacity: 1;
  }
  8.4% {
    animation-timing-function: cubic-bezier(0.0781,0.1617,0.0874,0.9301);
    transform: matrix(0.979,0,0,0.979,0,0);
    opacity: 1;
  }
  12.4% {
    animation-timing-function: cubic-bezier(0.8341,0.1496,0.8634,0.7673);
    transform: matrix(1.153,0,0,1.153,0,0);
    opacity: 1;
  }
  16.3% {
    animation-timing-function: cubic-bezier(0.3264,0.3332,0.5758,0.6695);
    transform: matrix(1.008,0,0,1.008,0,0);
    opacity: 1;
  }
  21.2% {
    animation-timing-function: cubic-bezier(0.0921,0.1883,0.3277,1);
    transform: matrix(0.704,0,0,0.704,0,0);
    opacity: 1;
  }
  24.5% {
    animation-timing-function: cubic-bezier(0.6905,0.0944,0.8759,0.7624);
    transform: matrix(0.626,0,0,0.626,0,0);
    opacity: 1;
  }
  27.7% {
    animation-timing-function: cubic-bezier(0.3688,0.332,0.624,0.6684);
    transform: matrix(0.704,0,0,0.704,0,0);
    opacity: 1;
  }
  32.6% {
    animation-timing-function: cubic-bezier(0.1368,0.2364,0.2451,0.9049);
    transform: matrix(0.958,0,0,0.958,0,0);
    opacity: 1;
  }
  37.4% {
    animation-timing-function: cubic-bezier(0.5936,0.0846,0.3495,1);
    transform: matrix(1.085,0,0,1.085,0,0);
    opacity: 1;
  }
  49.5% {
    animation-timing-function: cubic-bezier(0.5522,0.0981,0.3807,1);
    transform: matrix(0.802,0,0,0.802,0,0);
    opacity: 1;
  }
  62.4% {
    animation-timing-function: cubic-bezier(0.4497,0.1349,0.4911,1);
    transform: matrix(1.044,0,0,1.044,0,0);
    opacity: 1;
  }
  74.1% {
    animation-timing-function: cubic-bezier(0.429,0,0.5239,1);
    transform: matrix(0.914,0,0,0.914,0,0);
    opacity: 1;
  }
  87% {
    animation-timing-function: cubic-bezier(0.3501,0,0.6422,1);
    transform: matrix(1.013,0,0,1.013,0,0);
    opacity: 1;
  }
  95.8% {
    animation-timing-function: cubic-bezier(0.3653,0,0.6776,1);
    transform: matrix(0.992,0,0,0.992,0,0);
    opacity: 1;
  }
  100% {
    transform: matrix(1,0,0,1,0,0);
    opacity: 1;
  }
}</style><!-- [ldio] generated by https://loading.io/ --></svg>
