<?xml version="1.0" encoding="utf-8"?>
<svg xml:space="preserve" viewBox="0 0 100 100" y="0" x="0" xmlns="http://www.w3.org/2000/svg" id="圖層_1" version="1.1" style="height: 100%; width: 100%; background: none; shape-rendering: auto;" width="100px" height="100px"><g class="ldl-scale" style="transform-origin: 50% 50%; transform: rotate(0deg) scale(0.8, 0.8);"><g class="ldl-ani"><g class="ldl-layer"><g class="ldl-ani" style="transform-origin: 50px 50px; transform: matrix(1, 0, 0, 1, -49.75, 0); opacity: 0; animation: 2s linear -1.09s infinite normal forwards running fall-ltr-in-6f17d89c-125b-4ad1-b6f1-dd22eea882f5;"><path d="M30.9 80.2c0 1.3 1.5 1.9 2.5 1.1l32.9-30.2c.3-.3.5-.7.5-1.1 0-.4-.2-.8-.5-1.1l-33-30.2c-.9-.9-2.5-.2-2.5 1.1v18.1H12.1c-1.1 0-2.1.9-2.1 2.1v20.1c0 1.1.9 2.1 2.1 2.1h18.8v18z" id="XMLID_21_" style="fill: rgb(8, 145, 136);"></path></g></g><g class="ldl-layer"><g class="ldl-ani"><g><g class="ldl-layer"><g class="ldl-ani" style="transform-origin: 50px 50px; transform: matrix(1, 0, 0, 1, -49.75, 0); opacity: 0; animation: 2s linear -2s infinite normal forwards running fall-ltr-in-6f17d89c-125b-4ad1-b6f1-dd22eea882f5;"><path fill="#353035" d="M76 82.3H57.1c-2.7 0-4.9-2.2-4.9-4.9s2.2-4.9 4.9-4.9H76c2.3 0 4.3-1.9 4.3-4.3V31.6c0-2.3-1.9-4.3-4.3-4.3H57.1c-2.7 0-4.9-2.2-4.9-4.9s2.2-4.9 4.9-4.9H76c7.7 0 14 6.3 14 14v36.7c0 7.9-6.3 14.1-14 14.1z" style="fill: rgb(8, 145, 136);"></path></g></g></g></g></g><metadata xmlns:d="https://loading.io/stock/">
<d:name>login</d:name>
<d:tags>enter,sign in,sign up,join,subscribe,arrow,login,web application</d:tags>
<d:license>by</d:license>
<d:slug>3uadpc</d:slug>
</metadata></g></g><style id="fall-ltr-in-6f17d89c-125b-4ad1-b6f1-dd22eea882f5" data-anikit="">@keyframes fall-ltr-in-6f17d89c-125b-4ad1-b6f1-dd22eea882f5
{
  0% {
    animation-timing-function: cubic-bezier(0.7815,0.1815,0.7831,0.7206);
    transform: translate(-49.75px,0px) rotate(0deg) scale(1,1) skewX(0deg) skewY(0deg);
    opacity: 0;
  }
  31% {
    animation-timing-function: cubic-bezier(0.1707,0.3173,0.3345,0.9041);
    transform: translate(-2.65px,0px) rotate(0deg) scale(1,1) skewX(0deg) skewY(0deg);
    opacity: 1;
  }
  51% {
    animation-timing-function: cubic-bezier(0.6191,0.1797,0.7336,0.6732);
    transform: translate(-20px,0px) rotate(0deg) scale(1,1) skewX(0deg) skewY(0deg);
    opacity: 1;
  }
  72% {
    animation-timing-function: cubic-bezier(0.2345,0.4707,0.453,1);
    transform: translate(-1.05px,0px) rotate(0deg) scale(1,1) skewX(0deg) skewY(0deg);
    opacity: 1;
  }
  87% {
    animation-timing-function: cubic-bezier(0.53,0.1845,0.7541,0.5953);
    transform: translate(-7.9px,0px) rotate(0deg) scale(1,1) skewX(0deg) skewY(0deg);
    opacity: 1;
  }
  100% {
    transform: translate(0px,0px) rotate(0deg) scale(1,1) skewX(0deg) skewY(0deg);
    opacity: 1;
  }
}</style><!-- [ldio] generated by https://loading.io/ --></svg>