<?xml version="1.0" encoding="utf-8"?>
<svg xml:space="preserve" viewBox="0 0 100 100" y="0" x="0" xmlns="http://www.w3.org/2000/svg" id="圖層_1" version="1.1" style="height: 100%; width: 100%; background: rgb(255, 255, 255); shape-rendering: auto;" width="150px" height="150px"><g class="ldl-scale" style="transform-origin: 50% 50%; transform: rotate(0deg) scale(0.8, 0.8);"><g class="ldl-ani"><g class="ldl-layer"><g class="ldl-ani" style="transform-origin: 50px 50px; transform: matrix(1, 0, 0, 1, 0, 0); animation: 5.55556s linear -3.97222s infinite normal forwards running measure-c0157596-c551-479d-8f55-6bf3a00ade97;"><path fill="#333" d="M67.75 34.004h-35.5c-2.623 0-4.75 2.189-4.75 4.812v18.5c0 2.623 2.127 4.688 4.75 4.688h23.165c1.121 4.5 4.231 7.64 8.585 8.991v-8.991h3.75c2.623 0 4.75-2.064 4.75-4.688v-18.5c0-2.623-2.127-4.812-4.75-4.812z" style="fill: rgb(51, 51, 51);"></path></g></g><g class="ldl-layer"><g class="ldl-ani" style="transform-origin: 50px 50px; transform: matrix(1, 0, 0, 1, 0, 0); animation: 5.55556s linear -5.55556s infinite normal forwards running measure-c0157596-c551-479d-8f55-6bf3a00ade97;"><path fill="#c33636" d="M78.298 21.702c-15.604-15.603-40.991-15.603-56.595 0C6.1 37.305 6.1 62.694 21.703 78.297 29.504 86.099 39.752 90 50 90s20.496-3.901 28.298-11.703c15.603-15.603 15.603-40.992 0-56.595zm-50.307 6.289c6.068-6.068 14.038-9.102 22.009-9.102a31.083 31.083 0 0 1 17.535 5.401L24.29 67.535c-8.266-12.111-7.038-28.805 3.701-39.544zm44.018 44.018C61.27 82.748 44.576 83.976 32.465 75.71L75.71 32.465c8.266 12.111 7.038 28.805-3.701 39.544z" style="fill: rgb(195, 54, 54);"></path></g></g><metadata xmlns:d="https://loading.io/stock/"><d:name>silence</d:name><d:tags>mute,quiet,still,mute,settle down,silence,conversation</d:tags><d:license>pro</d:license><d:slug>a332p</d:slug></metadata></g></g><style id="measure-c0157596-c551-479d-8f55-6bf3a00ade97" data-anikit="">@keyframes measure-c0157596-c551-479d-8f55-6bf3a00ade97 {
  0% { transform: translate(0px,0px) rotate(0deg) scale(1) }
  3.33333% { transform: translate(0px,0px) rotate(-14.99241deg) scale(1) }
  6.66667% { transform: translate(0px,0px) rotate(10.93733deg) scale(1) }
  10% { transform: translate(0px,0px) rotate(10.60793deg) scale(1) }
  13.33333% { transform: translate(0px,0px) rotate(-10.26249deg) scale(1) }
  16.66667% { transform: translate(0px,0px) rotate(0.47337deg) scale(1) }
  20% { transform: translate(0px,0px) rotate(15deg) scale(1) }
  23.33333% { transform: translate(0px,0px) rotate(0.48087deg) scale(1) }
  26.66667% { transform: translate(0px,0px) rotate(-10.26796deg) scale(1) }
  30% { transform: translate(0px,0px) rotate(10.60262deg) scale(1) }
  33.33333% { transform: translate(0px,0px) rotate(10.94246deg) scale(1) }
  36.66667% { transform: translate(0px,0px) rotate(-14.99265deg) scale(1) }
  40% { transform: translate(0px,0px) rotate(-0.0075deg) scale(1) }
  43.33333% { transform: translate(0px,0px) rotate(14.99217deg) scale(1) }
  46.66667% { transform: translate(0px,0px) rotate(-10.93219deg) scale(1) }
  50% { transform: translate(0px,0px) rotate(-10.61323deg) scale(1) }
  53.33333% { transform: translate(0px,0px) rotate(10.25702deg) scale(1) }
  56.66667% { transform: translate(0px,0px) rotate(-0.46588deg) scale(1) }
  60% { transform: translate(0px,0px) rotate(-15deg) scale(1) }
  63.33333% { transform: translate(0px,0px) rotate(-0.48836deg) scale(1) }
  66.66667% { transform: translate(0px,0px) rotate(10.27343deg) scale(1) }
  70% { transform: translate(0px,0px) rotate(-10.59732deg) scale(1) }
  73.33333% { transform: translate(0px,0px) rotate(-10.94759deg) scale(1) }
  76.66667% { transform: translate(0px,0px) rotate(14.99288deg) scale(1) }
  80% { transform: translate(0px,0px) rotate(0.015deg) scale(1) }
  83.33333% { transform: translate(0px,0px) rotate(-14.99193deg) scale(1) }
  86.66667% { transform: translate(0px,0px) rotate(10.92706deg) scale(1) }
  90% { transform: translate(0px,0px) rotate(10.61853deg) scale(1) }
  93.33333% { transform: translate(0px,0px) rotate(-10.25155deg) scale(1) }
  96.66667% { transform: translate(0px,0px) rotate(0.45838deg) scale(1) }
  100% { transform: translate(0,0) rotate(0) scale(1) }
}</style><!-- [ldio] generated by https://loading.io/ --></svg>