<?xml version="1.0" encoding="utf-8"?>
<svg xmlns="http://www.w3.org/2000/svg" viewBox="0 0 49.964 49.838" style="height: 100%; width: 100%; background: none; shape-rendering: auto;" width="65px" height="65px"><g class="ldl-scale" style="transform-origin: 50% 50%; transform: rotate(0deg) scale(0.8, 0.8);"><g class="ldl-ani" style="transform-origin: 24.982px 24.919px; transform: scale(0.91); animation: 1s linear 0s infinite normal forwards running breath-338825b1-0659-4f95-b451-6a7131fe428a;">
  <g class="ldl-layer"><g class="ldl-ani"><g transform="matrix(1, 0, 0, 1, -174.188507, -56.729229)" stroke-miterlimit="10" stroke="#000" fill="none">
    <g class="ldl-layer"><g class="ldl-ani"><path d="m218.62 96.047c0 2.529-2.049 4.578-4.578 4.578h-30.136c-2.528 0-4.578-2.049-4.578-4.578v-29.881c0-2.528 2.049-4.578 4.578-4.578h30.136c2.529 0 4.578 2.05 4.578 4.578v29.881z" style="stroke: rgb(29, 63, 114);"></path></g></g>
    <g class="ldl-layer"><g class="ldl-ani"><path stroke-width=".75" d="m218.55 65.339c4e-3 -0.444-6e-3 -1.064 0.064-1.52 0.15-0.98 0.738-2.027 1.412-2.742 0.777-0.822 1.939-1.391 2.84-2.039 0.063-0.12-0.074 0.094-0.057 0.069" style="stroke: rgb(29, 63, 114);"></path></g></g>
    <g class="ldl-layer"><g class="ldl-ani"><path stroke-width=".75" d="m215.78 61.934s2.752-0.036 4.891-1.431" style="stroke: rgb(29, 63, 114);"></path></g></g>
    <g class="ldl-layer"><g class="ldl-ani"><path stroke-width=".75" d="m179.42 65.339c-3e-3 -0.444 6e-3 -1.064-0.063-1.52-0.151-0.98-0.739-2.027-1.414-2.742-0.776-0.822-1.939-1.391-2.838-2.039-0.062-0.12 0.074 0.094 0.056 0.069" style="stroke: rgb(29, 63, 114);"></path></g></g>
    <g class="ldl-layer"><g class="ldl-ani"><path stroke-width=".75" d="m182.19 61.934s-2.753-0.036-4.891-1.431" style="stroke: rgb(29, 63, 114);"></path></g></g>
    <g class="ldl-layer"><g class="ldl-ani"><path stroke-width=".75" d="m218.51 97.223c-0.043 0.441-0.119 1.057-0.096 1.518 0.045 0.99 0.52 2.094 1.115 2.875 0.686 0.9 2.627 2.561 3.453 3.301" style="stroke: rgb(29, 63, 114);"></path></g></g>
    <g class="ldl-layer"><g class="ldl-ani"><path stroke-width=".75" d="m215.68 100.32s2.449 0.328 4.428 1.939" style="stroke: rgb(29, 63, 114);"></path></g></g>
    <g class="ldl-layer"><g class="ldl-ani"><path stroke-width=".75" d="m179.6 97.664c0.043 0.443 0.075 0.615 0.053 1.076-0.046 0.99-0.521 2.094-1.116 2.875-0.685 0.9-2.627 2.561-3.454 3.301" style="stroke: rgb(29, 63, 114);"></path></g></g>
    <g class="ldl-layer"><g class="ldl-ani"><path stroke-width=".75" d="m182.38 100.32s-2.448 0.328-4.427 1.939" style="stroke: rgb(29, 63, 114);"></path></g></g>
  </g></g></g>
  <text y="30.695" x="19.131" style="font-family: FuturaBT-Bold; font-size: 18.4px; font-weight: 700; white-space: pre;">8</text>
  <g class="ldl-layer"><g class="ldl-ani"><path transform="matrix(0.999995, 0.00307, -0.00307, 0.999995, 0.076618, -0.076577)" stroke-miterlimit="10" stroke="#000" fill="none" d="M 49.888 45.183 C 49.895 47.712 47.853 49.761 45.324 49.761 L 4.793 49.761 C 2.265 49.761 0.209 47.712 0.201 45.183 L 0.076 4.654 C 0.069 2.126 2.111 0.076 4.64 0.076 L 45.171 0.076 C 47.7 0.076 49.755 2.125 49.763 4.654 L 49.888 45.183 Z" style="stroke: rgb(29, 63, 114);"></path></g></g>
</g></g><style id="breath-338825b1-0659-4f95-b451-6a7131fe428a" data-anikit="">@keyframes breath-338825b1-0659-4f95-b451-6a7131fe428a
{
  0% {
    animation-timing-function: cubic-bezier(0.9647,0.2413,-0.0705,0.7911);
    transform: scale(0.9099999999999999);
  }
  51% {
    animation-timing-function: cubic-bezier(0.9226,0.2631,-0.0308,0.7628);
    transform: scale(1.02994);
  }
  100% {
    transform: scale(0.9099999999999999);
  }
}</style><!-- [ldio] generated by https://loading.io/ --></svg>